<?xml version="1.0" encoding="UTF-8"?>
<svg width="289px" height="263px" viewBox="0 0 289 263" version="1.1" xmlns="http://www.w3.org/2000/svg" xmlns:xlink="http://www.w3.org/1999/xlink">
    <title>logo_square</title>
    <g id="logo_square" stroke="none" stroke-width="1" fill="none" fill-rule="evenodd">
        <rect fill="#FFFFFF" x="0" y="0" width="289" height="263"></rect>
        <g id="akarso." transform="translate(24.000000, 102.000000)" fill="#0F0F0F" fill-rule="nonzero">
            <path d="M16.3254173,52 C13.2671944,52 10.5076005,51.1746569 8.04663569,49.5239707 C5.58567085,47.8732844 3.6293237,45.6142611 2.17759422,42.7469006 C0.725864739,39.8795401 0,36.6208485 0,32.9708258 C0,29.2754208 0.728589457,26.0010616 2.18576837,23.147748 C3.64294728,20.2944343 5.63471577,18.0564813 8.16107383,16.4338888 C10.6874319,14.8112963 13.5549246,14 16.7635519,14 C18.5800302,14 20.2426528,14.2587864 21.7514197,14.7763592 C23.2601866,15.293932 24.5847626,16.0168051 25.7251477,16.9449784 C26.8655328,17.8731517 27.8239068,18.9423339 28.6002696,20.152525 C29.3766324,21.3627161 29.9301134,22.6607901 30.2607124,24.046747 L28.1681294,23.6815287 L28.1681294,14.7606915 L38,14.7606915 L38,51.3354754 L28.0329834,51.3354754 L28.0329834,42.5302548 L30.2759709,42.3411624 C29.9250272,43.621948 29.3284958,44.8456457 28.4863764,46.0122555 C27.6442571,47.1788653 26.6012352,48.2053666 25.3573108,49.0917596 C24.1133865,49.9781525 22.7299566,50.6844575 21.2070212,51.2106745 C19.6840857,51.7368915 18.0568845,52 16.3254173,52 Z M19.0501348,43.5481119 C20.9102086,43.5481119 22.5370466,43.1076168 23.9306488,42.2266265 C25.3242509,41.3456362 26.407417,40.1104129 27.1801468,38.5209566 C27.9528767,36.9315002 28.3392417,35.0814566 28.3392417,32.9708258 C28.3392417,30.8890089 27.9528767,29.0560737 27.1801468,27.47202 C26.407417,25.8879663 25.3242509,24.6552643 23.9306488,23.7739138 C22.5370466,22.8925633 20.9102086,22.4518881 19.0501348,22.4518881 C17.2183981,22.4518881 15.6173541,22.8925633 14.2470028,23.7739138 C12.8766516,24.6552643 11.8052926,25.8879663 11.0329261,27.47202 C10.2605595,29.0560737 9.87437618,30.8890089 9.87437618,32.9708258 C9.87437618,35.0814566 10.2605595,36.9315002 11.0329261,38.5209566 C11.8052926,40.1104129 12.8766516,41.3456362 14.2470028,42.2266265 C15.6173541,43.1076168 17.2183981,43.5481119 19.0501348,43.5481119 Z" id="Shape"></path>
            <path d="M56.4144529,40.0720439 L53.4853908,31.9783784 L70.9015833,14.5494299 L84,14.5494299 L56.4144529,40.0720439 Z M47,51 L47,0 L56.9064481,0 L56.9064481,51 L47,51 Z M71.9870272,51 L58.7064304,34.5434544 L65.6761801,28.9879434 L83.9181826,51 L71.9870272,51 Z" id="Shape"></path>
            <path d="M101.325417,52 C98.2671944,52 95.5076005,51.1746569 93.0466357,49.5239707 C90.5856709,47.8732844 88.6293237,45.6142611 87.1775942,42.7469006 C85.7258647,39.8795401 85,36.6208485 85,32.9708258 C85,29.2754208 85.7285895,26.0010616 87.1857684,23.147748 C88.6429473,20.2944343 90.6347158,18.0564813 93.1610738,16.4338888 C95.6874319,14.8112963 98.5549246,14 101.763552,14 C103.58003,14 105.242653,14.2587864 106.75142,14.7763592 C108.260187,15.293932 109.584763,16.0168051 110.725148,16.9449784 C111.865533,17.8731517 112.823907,18.9423339 113.60027,20.152525 C114.376632,21.3627161 114.930113,22.6607901 115.260712,24.046747 L113.168129,23.6815287 L113.168129,14.7606915 L123,14.7606915 L123,51.3354754 L113.032983,51.3354754 L113.032983,42.5302548 L115.275971,42.3411624 C114.925027,43.621948 114.328496,44.8456457 113.486376,46.0122555 C112.644257,47.1788653 111.601235,48.2053666 110.357311,49.0917596 C109.113386,49.9781525 107.729957,50.6844575 106.207021,51.2106745 C104.684086,51.7368915 103.056884,52 101.325417,52 Z M104.050135,43.5481119 C105.910209,43.5481119 107.537047,43.1076168 108.930649,42.2266265 C110.324251,41.3456362 111.407417,40.1104129 112.180147,38.5209566 C112.952877,36.9315002 113.339242,35.0814566 113.339242,32.9708258 C113.339242,30.8890089 112.952877,29.0560737 112.180147,27.47202 C111.407417,25.8879663 110.324251,24.6552643 108.930649,23.7739138 C107.537047,22.8925633 105.910209,22.4518881 104.050135,22.4518881 C102.218398,22.4518881 100.617354,22.8925633 99.2470028,23.7739138 C97.8766516,24.6552643 96.8052926,25.8879663 96.0329261,27.47202 C95.2605595,29.0560737 94.8743762,30.8890089 94.8743762,32.9708258 C94.8743762,35.0814566 95.2605595,36.9315002 96.0329261,38.5209566 C96.8052926,40.1104129 97.8766516,41.3456362 99.2470028,42.2266265 C100.617354,43.1076168 102.218398,43.5481119 104.050135,43.5481119 Z" id="Shape"></path>
            <path d="M133,51 L133,14.7538564 L142.576728,14.7538564 L142.90409,26.4086476 L141.249759,23.9864556 C141.799378,22.1082395 142.706833,20.4120626 143.972125,18.8979249 C145.237416,17.3837872 146.721315,16.188932 148.42382,15.3133592 C150.126325,14.4377864 151.914411,14 153.788079,14 C154.600464,14 155.373252,14.0640707 156.106442,14.192212 C156.839632,14.3203533 157.470818,14.4758005 158,14.6585535 L155.317597,25.3463954 C154.793524,25.0822601 154.12931,24.8481077 153.324954,24.6439383 C152.520598,24.4397689 151.691425,24.3376841 150.837435,24.3376841 C149.739657,24.3376841 148.709395,24.5331086 147.74665,24.9239574 C146.783904,25.3148062 145.952177,25.8660994 145.251467,26.5778369 C144.550758,27.2895745 143.997854,28.1207083 143.592756,29.0712384 C143.187659,30.0217685 142.98511,31.0795589 142.98511,32.2446097 L142.98511,51 L133,51 Z" id="Path"></path>
            <path d="M175.464983,52 C172.059414,52 169.036847,51.4388846 166.39728,50.3166539 C163.757714,49.1944231 161.625287,47.6413681 160,45.6574887 L166.108281,40.4098542 C167.521886,41.8963241 169.097302,42.9787837 170.834529,43.657233 C172.571757,44.3356823 174.3219,44.6749069 176.08496,44.6749069 C176.7688,44.6749069 177.395235,44.598064 177.964265,44.4443781 C178.533295,44.2906923 179.019446,44.0558444 179.422718,43.7398346 C179.82599,43.4238248 180.134005,43.054007 180.346764,42.630381 C180.559522,42.2067551 180.665901,41.730041 180.665901,41.2002387 C180.665901,40.1996609 180.25653,39.411436 179.437787,38.8355639 C178.996484,38.5670635 178.291117,38.2593319 177.321685,37.9123689 C176.352253,37.565406 175.095795,37.1936086 173.552311,36.7969767 C171.227397,36.1951903 169.255525,35.4926264 167.636696,34.6892848 C166.017867,33.8859432 164.722661,32.9670673 163.751076,31.9326571 C162.901478,31.0033435 162.257821,29.9712727 161.820106,28.8364447 C161.382391,27.7016168 161.163533,26.4406369 161.163533,25.053505 C161.163533,23.3892346 161.536668,21.8833291 162.282936,20.5357884 C163.029205,19.1882477 164.054966,18.0244461 165.360218,17.0443838 C166.665471,16.0643215 168.168233,15.3119086 169.868506,14.7871452 C171.568779,14.2623817 173.350316,14 175.213117,14 C177.126148,14 178.974419,14.2258498 180.757929,14.6775495 C182.541439,15.1292492 184.203143,15.7794448 185.74304,16.6281363 C187.282936,17.4768278 188.624426,18.4820845 189.767509,19.6439065 L184.523536,25.4789305 C183.686854,24.6935849 182.751866,23.9802233 181.718571,23.3388458 C180.685276,22.6974682 179.627045,22.1881814 178.543879,21.8109851 C177.460713,21.4337889 176.46527,21.2451908 175.557549,21.2451908 C174.771814,21.2451908 174.073443,21.3148353 173.462435,21.4541244 C172.851428,21.5934135 172.339803,21.807026 171.927562,22.0949621 C171.51532,22.3828981 171.202641,22.7361597 170.989524,23.1547467 C170.776406,23.5733337 170.669848,24.0475284 170.669848,24.5773307 C170.697833,25.0862577 170.833812,25.5653113 171.077784,26.0144915 C171.321757,26.4636718 171.681975,26.8459069 172.158439,27.1611968 C172.628444,27.457771 173.364129,27.795376 174.365492,28.1740119 C175.366856,28.5526478 176.719647,28.9622368 178.423866,29.402779 C180.630382,30.0016859 182.497847,30.6716771 184.026263,31.4127525 C185.554679,32.1538279 186.773106,33.0116974 187.681544,33.9863609 C188.492394,34.8084183 189.081515,35.7505091 189.448909,36.8126332 C189.816303,37.8747573 190,39.0482766 190,40.3331913 C190,42.585571 189.361007,44.5921253 188.083022,46.3528543 C186.805037,48.1135832 185.071398,49.4949564 182.882104,50.4969738 C180.69281,51.4989913 178.220436,52 175.464983,52 Z" id="Path"></path>
            <path d="M213.547855,52 C209.79483,52 206.446762,51.1777626 203.503653,49.5332879 C200.560544,47.8888131 198.240825,45.6409324 196.544495,42.7896457 C194.848165,39.938359 194,36.6753237 194,33.0005399 C194,29.3250362 194.848165,26.061641 196.544495,23.2103543 C198.240825,20.3590676 200.560544,18.1111869 203.503653,16.4667121 C206.446762,14.8222374 209.79483,14 213.547855,14 C217.273328,14 220.603087,14.8222374 223.537133,16.4667121 C226.471178,18.1111869 228.781834,20.3590676 230.4691,23.2103543 C232.156367,26.061641 233,29.3250362 233,33.0005399 C233,36.6753237 232.156367,39.938359 230.4691,42.7896457 C228.781834,45.6409324 226.471178,47.8888131 223.537133,49.5332879 C220.603087,51.1777626 217.273328,52 213.547855,52 Z M213.547855,43.4612565 C215.368537,43.4612565 216.997434,43.0050578 218.434547,42.0926605 C219.87166,41.1802631 220.996263,39.9345798 221.808355,38.3556105 C222.620447,36.7766412 223.012354,34.9916177 222.984076,33.0005399 C223.012354,30.9626725 222.620447,29.1542542 221.808355,27.5752849 C220.996263,25.9963156 219.87166,24.7576507 218.434547,23.8592902 C216.997434,22.9609297 215.368537,22.5117495 213.547855,22.5117495 C211.709772,22.5117495 210.065104,22.9679482 208.613852,23.8803455 C207.1626,24.7927429 206.026396,26.0384262 205.20524,27.6173955 C204.384084,29.1963648 203.987646,30.9907463 204.015924,33.0005399 C203.987646,34.9916177 204.384084,36.7766412 205.20524,38.3556105 C206.026396,39.9345798 207.1626,41.1802631 208.613852,42.0926605 C210.065104,43.0050578 211.709772,43.4612565 213.547855,43.4612565 Z" id="Shape"></path>
            <path d="M243.499467,52 C241.752252,52 240.39887,51.4799447 239.439322,50.439834 C238.479774,49.3997234 238,47.9199631 238,46.0005533 C238,44.2404795 238.506941,42.8003688 239.520823,41.6802213 C240.534705,40.5600738 241.86092,40 243.499467,40 C245.247393,40 246.60113,40.5200553 247.560678,41.560166 C248.520226,42.6002766 249,44.0804057 249,46.0005533 C249,47.760627 248.493059,49.2005533 247.479177,50.320332 C246.465295,51.4401107 245.138725,52 243.499467,52 Z" id="Path"></path>
        </g>
    </g>
</svg>