<?xml version="1.0" encoding="UTF-8"?>
<svg width="385px" height="131px" viewBox="0 0 385 131" version="1.1" xmlns="http://www.w3.org/2000/svg" xmlns:xlink="http://www.w3.org/1999/xlink">
    <title>logo</title>
    <g id="logo" stroke="none" stroke-width="1" fill="none" fill-rule="evenodd">
        <g id="akarso." transform="translate(20.512519, 25.480000)" fill="#0F0F0F" fill-rule="nonzero">
            <path d="M22.9365937,73.4617187 C18.6399062,73.4617187 14.7627812,72.292099 11.3052187,69.9528594 C7.84765625,67.6136198 5.0990625,64.4122865 3.0594375,60.3488594 C1.0198125,56.2854323 0,51.6674375 0,46.494875 C0,41.258 1.02364063,36.6178021 3.07092188,32.5742812 C5.11820313,28.5307604 7.9165625,25.3592865 11.466,23.0598594 C15.0154375,20.7604323 19.0441563,19.6107187 23.5521563,19.6107187 C26.1042396,19.6107187 28.4401615,19.9774531 30.5599219,20.7109219 C32.6796823,21.4443906 34.5406615,22.4687969 36.1428594,23.7841406 C37.7450573,25.0994844 39.0915365,26.6146562 40.1822969,28.3296562 C41.2730573,30.0446562 42.0506771,31.8841979 42.5151563,33.8482812 L39.5751563,33.3307187 L39.5751563,20.6887187 L53.3885625,20.6887187 L53.3885625,72.52 L39.3852813,72.52 L39.3852813,60.0418437 L42.5365938,59.773875 C42.0435313,61.5889167 41.2054271,63.3230573 40.0222813,64.9762969 C38.8391354,66.6295365 37.3737292,68.084224 35.6260625,69.3403594 C33.8783958,70.5964948 31.9347292,71.5974219 29.7950625,72.3431406 C27.6553958,73.0888594 25.3692396,73.4617187 22.9365937,73.4617187 Z M26.7647188,61.4842812 C29.3780521,61.4842812 31.6636979,60.8600417 33.6216563,59.6115625 C35.5796146,58.3630833 37.1014219,56.6126094 38.1870781,54.3601406 C39.2727344,52.1076719 39.8155625,49.4859167 39.8155625,46.494875 C39.8155625,43.5446667 39.2727344,40.9471562 38.1870781,38.7023437 C37.1014219,36.4575312 35.5796146,34.7106302 33.6216563,33.4616406 C31.6636979,32.212651 29.3780521,31.5881562 26.7647188,31.5881562 C24.1911979,31.5881562 21.9417917,32.212651 20.0165,33.4616406 C18.0912083,34.7106302 16.5859896,36.4575312 15.5008437,38.7023437 C14.4156979,40.9471562 13.873125,43.5446667 13.873125,46.494875 C13.873125,49.4859167 14.4156979,52.1076719 15.5008437,54.3601406 C16.5859896,56.6126094 18.0912083,58.3630833 20.0165,59.6115625 C21.9417917,60.8600417 24.1911979,61.4842812 26.7647188,61.4842812 Z" id="Shape"></path>
            <path d="M80.2354105,56.980875 L76.1240042,45.472 L100.57041,20.6887187 L118.956129,20.6887187 L80.2354105,56.980875 Z M67.020723,72.52 L67.020723,0 L80.9260042,0 L80.9260042,72.52 L67.020723,72.52 Z M102.094004,72.52 L83.4525667,49.1194375 L93.235723,41.2197187 L118.841285,72.52 L102.094004,72.52 Z" id="Shape"></path>
            <path d="M143.427985,73.4617187 C139.131297,73.4617187 135.254172,72.292099 131.79661,69.9528594 C128.339047,67.6136198 125.590453,64.4122865 123.550828,60.3488594 C121.511203,56.2854323 120.491391,51.6674375 120.491391,46.494875 C120.491391,41.258 121.515031,36.6178021 123.562313,32.5742812 C125.609594,28.5307604 128.407953,25.3592865 131.957391,23.0598594 C135.506828,20.7604323 139.535547,19.6107187 144.043547,19.6107187 C146.59563,19.6107187 148.931552,19.9774531 151.051313,20.7109219 C153.171073,21.4443906 155.032052,22.4687969 156.63425,23.7841406 C158.236448,25.0994844 159.582927,26.6146562 160.673688,28.3296562 C161.764448,30.0446562 162.542068,31.8841979 163.006547,33.8482812 L160.066547,33.3307187 L160.066547,20.6887187 L173.879953,20.6887187 L173.879953,72.52 L159.876672,72.52 L159.876672,60.0418437 L163.027985,59.773875 C162.534922,61.5889167 161.696818,63.3230573 160.513672,64.9762969 C159.330526,66.6295365 157.86512,68.084224 156.117453,69.3403594 C154.369787,70.5964948 152.42612,71.5974219 150.286453,72.3431406 C148.146787,73.0888594 145.86063,73.4617187 143.427985,73.4617187 Z M147.25611,61.4842812 C149.869443,61.4842812 152.155089,60.8600417 154.113047,59.6115625 C156.071005,58.3630833 157.592813,56.6126094 158.678469,54.3601406 C159.764125,52.1076719 160.306953,49.4859167 160.306953,46.494875 C160.306953,43.5446667 159.764125,40.9471562 158.678469,38.7023437 C157.592813,36.4575312 156.071005,34.7106302 154.113047,33.4616406 C152.155089,32.212651 149.869443,31.5881562 147.25611,31.5881562 C144.682589,31.5881562 142.433182,32.212651 140.507891,33.4616406 C138.582599,34.7106302 137.07738,36.4575312 135.992235,38.7023437 C134.907089,40.9471562 134.364516,43.5446667 134.364516,46.494875 C134.364516,49.4859167 134.907089,52.1076719 135.992235,54.3601406 C137.07738,56.6126094 138.582599,58.3630833 140.507891,59.6115625 C142.433182,60.8600417 144.682589,61.4842812 147.25611,61.4842812 Z" id="Shape"></path>
            <path d="M187.512114,72.52 L187.512114,20.6887187 L200.905958,20.6887187 L201.363801,37.3548437 L199.050083,33.8911562 C199.81877,31.2053437 201.087921,28.7798437 202.857536,26.6146562 C204.62715,24.4494687 206.702504,22.740849 209.083598,21.4887969 C211.464692,20.2367448 213.965478,19.6107187 216.585958,19.6107187 C217.722145,19.6107187 218.802952,19.7023385 219.828379,19.8855781 C220.853806,20.0688177 221.736572,20.2911042 222.476676,20.5524375 L218.725114,35.8358437 C217.992155,35.4581354 217.063197,35.1233021 215.938239,34.8313437 C214.81328,34.5393854 213.653614,34.3934062 212.459239,34.3934062 C210.923905,34.3934062 209.482999,34.6728594 208.13652,35.2317656 C206.790041,35.7906719 205.626801,36.5790104 204.646801,37.5967812 C203.666801,38.6145521 202.89352,39.8030573 202.326958,41.1622969 C201.760395,42.5215365 201.477114,44.0341562 201.477114,45.7001562 L201.477114,72.52 L187.512114,72.52 Z" id="Path"></path>
            <path d="M247.564405,73.5 C242.71953,73.5 238.419525,72.7042604 234.664389,71.1127812 C230.909254,69.5213021 227.875593,67.3188542 225.563405,64.5054375 L234.253249,57.0635625 C236.264291,59.1715833 238.50553,60.7066615 240.976968,61.6687969 C243.448405,62.6309323 245.938218,63.112 248.446405,63.112 C249.419259,63.112 250.310447,63.003026 251.119968,62.7850781 C251.929488,62.5671302 252.621103,62.2340833 253.194811,61.7859375 C253.76852,61.3377917 254.206712,60.8133385 254.509389,60.2125781 C254.812067,59.6118177 254.963405,58.9357708 254.963405,58.1844375 C254.963405,56.7654792 254.38102,55.6476667 253.216249,54.831 C252.588436,54.4502292 251.584957,54.0138229 250.205811,53.5217812 C248.826666,53.0297396 247.039186,52.5024792 244.843374,51.94 C241.535874,51.0865833 238.730624,50.09025 236.427624,48.951 C234.124624,47.81175 232.28202,46.5086562 230.899811,45.0417187 C229.691145,43.7238229 228.775457,42.2602031 228.152749,40.6508594 C227.530041,39.0415156 227.218686,37.2532708 227.218686,35.286125 C227.218686,32.9259583 227.74952,30.790375 228.811186,28.879375 C229.872853,26.968375 231.332134,25.3179427 233.18903,23.9280781 C235.045926,22.5382135 237.183806,21.4711875 239.602671,20.727 C242.021535,19.9828125 244.556009,19.6107187 247.206093,19.6107187 C249.927634,19.6107187 252.557046,19.9310052 255.094327,20.5715781 C257.631608,21.212151 259.995603,22.1342187 262.186311,23.3377812 C264.37702,24.5413437 266.285468,25.9669375 267.911655,27.6145625 L260.451405,35.8894375 C259.261113,34.7757083 257.930968,33.7640625 256.460968,32.8545 C254.990968,31.9449375 253.485494,31.2226979 251.944546,30.6877812 C250.403598,30.1528646 248.987447,29.8854062 247.696093,29.8854062 C246.57828,29.8854062 245.584754,29.9841719 244.715514,30.1817031 C243.846275,30.3792344 243.118421,30.6821667 242.531952,31.0905 C241.945483,31.4988333 241.500655,31.9998073 241.197468,32.5934219 C240.89428,33.1870365 240.742686,33.8595104 240.742686,34.6108437 C240.782499,35.3325729 240.975947,36.0119375 241.32303,36.6489375 C241.670113,37.2859375 242.182572,37.828 242.860405,38.275125 C243.529051,38.6957083 244.57566,39.1744792 246.000233,39.7114375 C247.424806,40.2483958 249.349332,40.82925 251.773811,41.454 C254.912874,42.3033333 257.569593,43.253474 259.743968,44.3044219 C261.918343,45.3553698 263.651718,46.5719479 264.944093,47.9541562 C266.097634,49.1199479 266.935738,50.4559635 267.458405,51.9622031 C267.981072,53.4684427 268.242405,55.1326562 268.242405,56.9548437 C268.242405,60.1490312 267.333353,62.9946042 265.515249,65.4915625 C263.697145,67.9885208 261.230811,69.9475 258.116249,71.3685 C255.001686,72.7895 251.484405,73.5 247.564405,73.5 Z" id="Path"></path>
            <path d="M301.872643,73.5 C296.588809,73.5 291.875111,72.3339531 287.731549,70.0018594 C283.587986,67.6697656 280.322085,64.4819583 277.933846,60.4384375 C275.545606,56.3949167 274.351486,51.7674792 274.351486,46.556125 C274.351486,41.34375 275.545606,36.7158021 277.933846,32.6722812 C280.322085,28.6287604 283.587986,25.4409531 287.731549,23.1088594 C291.875111,20.7767656 296.588809,19.6107187 301.872643,19.6107187 C307.117684,19.6107187 311.805606,20.7767656 315.936408,23.1088594 C320.06721,25.4409531 323.320351,28.6287604 325.69583,32.6722812 C328.071309,36.7158021 329.259049,41.34375 329.259049,46.556125 C329.259049,51.7674792 328.071309,56.3949167 325.69583,60.4384375 C323.320351,64.4819583 320.06721,67.6697656 315.936408,70.0018594 C311.805606,72.3339531 307.117684,73.5 301.872643,73.5 Z M301.872643,61.390875 C304.435955,61.390875 306.729257,60.7439219 308.752549,59.4500156 C310.775841,58.1561094 312.359153,56.3895573 313.502486,54.1503594 C314.64582,51.9111615 315.19758,49.37975 315.157768,46.556125 C315.19758,43.6661458 314.64582,41.1015573 313.502486,38.8623594 C312.359153,36.6231615 310.775841,34.8665625 308.752549,33.5925625 C306.729257,32.3185625 304.435955,31.6815625 301.872643,31.6815625 C299.28483,31.6815625 296.969325,32.3285156 294.926127,33.6224219 C292.882929,34.9163281 291.283283,36.6828802 290.12719,38.9220781 C288.971096,41.161276 288.412955,43.7059583 288.452768,46.556125 C288.412955,49.37975 288.971096,51.9111615 290.12719,54.1503594 C291.283283,56.3895573 292.882929,58.1561094 294.926127,59.4500156 C296.969325,60.7439219 299.28483,61.390875 301.872643,61.390875 Z" id="Shape"></path>
            <path d="M344.595658,73.598 C342.084408,73.598 340.13921,72.8783125 338.760064,71.4389375 C337.380919,69.9995625 336.691346,67.9517708 336.691346,65.2955625 C336.691346,62.8598542 337.419965,60.8669323 338.877205,59.3167969 C340.334445,57.7666615 342.240596,56.9915937 344.595658,56.9915937 C347.107929,56.9915937 349.053637,57.7112812 350.432783,59.1506562 C351.811929,60.5900312 352.501502,62.6383333 352.501502,65.2955625 C352.501502,67.7312708 351.772882,69.7239375 350.315643,71.2735625 C348.858403,72.8231875 346.951742,73.598 344.595658,73.598 Z" id="Path"></path>
        </g>
    </g>
</svg>